<svg width="75" height="31" viewBox="0 0 75 31" fill="none" xmlns="http://www.w3.org/2000/svg">
<path d="M0.44 30L11.44 1.64H18.36L29.24 30H21.76L13.56 6.16H16.16L7.76 30H0.44ZM7.12 25.04V19.36H22.76V25.04H7.12ZM29.7275 30V0.839999H36.6875V30H29.7275ZM41.1822 30V9.2C41.1822 7.54667 41.5422 6.06667 42.2622 4.76C42.9822 3.42666 44.0089 2.36 45.3422 1.56C46.7022 0.759998 48.3289 0.359998 50.2222 0.359998C51.6355 0.359998 52.8755 0.599998 53.9422 1.08C55.0089 1.53333 55.9289 2.14667 56.7022 2.92L52.3422 7.28C52.1289 7.04 51.8622 6.86667 51.5422 6.76C51.2489 6.62667 50.9022 6.56 50.5022 6.56C49.7822 6.56 49.2089 6.77333 48.7822 7.2C48.3555 7.62667 48.1422 8.2 48.1422 8.92V30H41.1822ZM37.0222 16.24V10.44H53.6622V16.24H37.0222ZM62.2469 30.4C60.4335 30.4 58.8202 29.96 57.4069 29.08C55.9935 28.2 54.8869 27 54.0869 25.48C53.2869 23.9333 52.8869 22.1867 52.8869 20.24C52.8869 18.2667 53.2869 16.5067 54.0869 14.96C54.8869 13.4133 55.9935 12.2133 57.4069 11.36C58.8202 10.48 60.4335 10.04 62.2469 10.04C63.4735 10.04 64.5935 10.2667 65.6069 10.72C66.6202 11.1467 67.4469 11.76 68.0869 12.56C68.7535 13.36 69.1535 14.2667 69.2869 15.28V25.12C69.1535 26.16 68.7535 27.08 68.0869 27.88C67.4469 28.6533 66.6202 29.2667 65.6069 29.72C64.5935 30.1733 63.4735 30.4 62.2469 30.4ZM63.7269 24.2C64.8735 24.2 65.7935 23.8267 66.4869 23.08C67.2069 22.3333 67.5669 21.3733 67.5669 20.2C67.5669 19.4267 67.4069 18.7467 67.0869 18.16C66.7669 17.5733 66.3135 17.1067 65.7269 16.76C65.1669 16.4133 64.5135 16.24 63.7669 16.24C63.0202 16.24 62.3535 16.4133 61.7669 16.76C61.2069 17.1067 60.7535 17.5867 60.4069 18.2C60.0869 18.7867 59.9269 19.4533 59.9269 20.2C59.9269 20.9733 60.0869 21.6667 60.4069 22.28C60.7269 22.8667 61.1802 23.3333 61.7669 23.68C62.3535 24.0267 63.0069 24.2 63.7269 24.2ZM67.2869 30V24.76L68.2869 19.96L67.2869 15.24V10.44H74.1269V30H67.2869Z" fill="#FF5C00"/>
<path d="M0 35H76.1669V37H0V35Z" fill="#FF5C00"/>
</svg>
