<svg width="14" height="14" viewBox="0 0 14 14" fill="none" xmlns="http://www.w3.org/2000/svg">
<path d="M10.5 2.61332C9.57175 1.68506 8.31276 1.16357 7.00001 1.16357C5.68725 1.16357 4.42827 1.68506 3.50001 2.61332C2.57175 3.54158 2.05026 4.80057 2.05026 6.11332C2.05026 7.42608 2.57175 8.68506 3.50001 9.61332L6.57418 12.6933C6.62841 12.748 6.69292 12.7914 6.76401 12.821C6.83509 12.8506 6.91134 12.8659 6.98834 12.8659C7.06535 12.8659 7.14159 12.8506 7.21268 12.821C7.28376 12.7914 7.34828 12.748 7.40251 12.6933L10.5 9.58416C11.4244 8.65976 11.9437 7.40602 11.9437 6.09874C11.9437 4.79146 11.4244 3.53772 10.5 2.61332ZM9.66584 8.74999L7.00001 11.4275L4.33418 8.74999C3.80751 8.22284 3.44895 7.55138 3.30383 6.82049C3.15871 6.0896 3.23354 5.33209 3.51885 4.64372C3.80417 3.95535 4.28717 3.36702 4.90679 2.9531C5.52642 2.53918 6.25485 2.31826 7.00001 2.31826C7.74517 2.31826 8.4736 2.53918 9.09323 2.9531C9.71285 3.36702 10.1958 3.95535 10.4812 4.64372C10.7665 5.33209 10.8413 6.0896 10.6962 6.82049C10.5511 7.55138 10.1925 8.22284 9.66584 8.74999ZM5.25001 4.32249C4.77909 4.79486 4.51466 5.43465 4.51466 6.10166C4.51466 6.76866 4.77909 7.40845 5.25001 7.88082C5.59987 8.23128 6.04544 8.47062 6.53081 8.56881C7.01618 8.667 7.51973 8.61966 7.9783 8.43274C8.43687 8.24583 8.83003 7.92765 9.10846 7.51813C9.38688 7.10862 9.53817 6.626 9.54334 6.13082C9.54597 5.80019 9.48228 5.47239 9.35604 5.1668C9.22979 4.86121 9.04356 4.58403 8.80834 4.35166C8.57715 4.11516 8.30147 3.92672 7.99717 3.79718C7.69287 3.66763 7.36596 3.59955 7.03524 3.59684C6.70453 3.59413 6.37654 3.65684 6.07016 3.78138C5.76378 3.90592 5.48505 4.08981 5.25001 4.32249ZM7.98584 7.05249C7.76479 7.27692 7.47263 7.4176 7.15933 7.45047C6.84604 7.48334 6.53105 7.40636 6.26822 7.2327C6.0054 7.05903 5.81106 6.79946 5.71843 6.49837C5.6258 6.19728 5.64064 5.87336 5.7604 5.582C5.88017 5.29063 6.09742 5.04991 6.37502 4.901C6.65262 4.75209 6.97332 4.70423 7.28231 4.7656C7.59129 4.82697 7.86936 4.99376 8.06897 5.23746C8.26859 5.48116 8.37736 5.78664 8.37668 6.10166C8.36819 6.46173 8.21713 6.80371 7.95668 7.05249H7.98584Z" fill="#1E3E5A"/>
</svg>
