<svg width="14" height="14" viewBox="0 0 14 14" fill="none" xmlns="http://www.w3.org/2000/svg">
<path d="M11.34 7.58322C11.2117 7.58322 11.0775 7.54238 10.9492 7.51322C10.6893 7.45595 10.4339 7.37991 10.185 7.28572C9.91438 7.18727 9.61692 7.19238 9.34984 7.30007C9.08277 7.40776 8.86496 7.61042 8.73833 7.86905L8.61 8.13155C8.04183 7.81549 7.51974 7.42293 7.05833 6.96488C6.60028 6.50348 6.20773 5.98138 5.89166 5.41322L6.13667 5.24988C6.3953 5.12325 6.59795 4.90544 6.70564 4.63837C6.81334 4.3713 6.81845 4.07383 6.72 3.80322C6.62738 3.5538 6.55138 3.29851 6.4925 3.03905C6.46333 2.91072 6.44 2.77655 6.4225 2.64238C6.35166 2.23149 6.13645 1.8594 5.81561 1.59311C5.49478 1.32681 5.0894 1.18382 4.6725 1.18988H2.9225C2.6711 1.18752 2.42214 1.23936 2.19258 1.34186C1.96301 1.44436 1.75823 1.59512 1.59217 1.78388C1.4261 1.97264 1.30266 2.19496 1.23024 2.43572C1.15782 2.67647 1.13813 2.93 1.1725 3.17905C1.48326 5.62285 2.59935 7.89348 4.34446 9.63225C6.08958 11.371 8.36424 12.4788 10.8092 12.7807H11.0308C11.461 12.7813 11.8763 12.6235 12.1975 12.3374C12.382 12.1723 12.5295 11.97 12.63 11.7437C12.7306 11.5175 12.782 11.2725 12.7808 11.0249V9.27488C12.7737 8.86969 12.6261 8.47954 12.3634 8.17102C12.1006 7.8625 11.7389 7.65475 11.34 7.58322ZM11.6317 11.0832C11.6316 11.166 11.6138 11.2479 11.5796 11.3233C11.5454 11.3988 11.4956 11.4661 11.4333 11.5207C11.3683 11.5773 11.2922 11.6195 11.2097 11.6447C11.1273 11.6698 11.0405 11.6773 10.955 11.6665C8.77036 11.3864 6.74114 10.387 5.18742 8.82588C3.6337 7.26477 2.6439 5.23083 2.37416 3.04488C2.36488 2.95943 2.37302 2.87299 2.39808 2.79078C2.42315 2.70856 2.46462 2.63228 2.52 2.56655C2.57466 2.50433 2.64195 2.45446 2.71739 2.42026C2.79282 2.38606 2.87467 2.36832 2.9575 2.36822H4.7075C4.84315 2.3652 4.97561 2.40956 5.08208 2.49367C5.18855 2.57779 5.26237 2.69638 5.29083 2.82905C5.31416 2.98849 5.34333 3.14599 5.37833 3.30155C5.44572 3.60905 5.5354 3.91124 5.64666 4.20572L4.83 4.58488C4.76017 4.61692 4.69736 4.66243 4.64517 4.71881C4.59299 4.77519 4.55245 4.84132 4.52589 4.91341C4.49933 4.9855 4.48727 5.06213 4.49041 5.13889C4.49355 5.21565 4.51181 5.29103 4.54416 5.36072C5.3837 7.15899 6.82922 8.60452 8.6275 9.44405C8.76952 9.50239 8.92881 9.50239 9.07083 9.44405C9.14358 9.41803 9.21044 9.37781 9.26752 9.32574C9.32459 9.27367 9.37076 9.21078 9.40333 9.14072L9.765 8.32405C10.0666 8.43189 10.3743 8.5215 10.6867 8.59238C10.8422 8.62738 10.9997 8.65655 11.1592 8.67988C11.2918 8.70834 11.4104 8.78216 11.4945 8.88863C11.5787 8.9951 11.623 9.12756 11.62 9.26322L11.6317 11.0832Z" fill="#1E3E5A"/>
</svg>
