<svg width="36" height="37" viewBox="0 0 36 37" fill="none" xmlns="http://www.w3.org/2000/svg">
<path d="M18 13.1667C17.6318 13.1667 17.3333 13.4652 17.3333 13.8334V17.8334H13.3333C12.9651 17.8334 12.6667 18.1318 12.6667 18.5C12.6667 18.8682 12.9651 19.1667 13.3333 19.1667H17.3333V23.1667C17.3333 23.5349 17.6318 23.8334 18 23.8334C18.3682 23.8334 18.6667 23.5349 18.6667 23.1667V19.1667H22.6667C23.0349 19.1667 23.3333 18.8682 23.3333 18.5C23.3333 18.1318 23.0349 17.8334 22.6667 17.8334H18.6667V13.8334C18.6667 13.4652 18.3682 13.1667 18 13.1667Z" fill="#1942DF"/>
<circle cx="18" cy="18.5" r="17.5" stroke="#1942DF"/>
</svg>
