<svg width="16" height="17" viewBox="0 0 16 17" fill="none" xmlns="http://www.w3.org/2000/svg">
<path d="M8 3.16669C7.63181 3.16669 7.33333 3.46516 7.33333 3.83335V7.83335H3.33333C2.96514 7.83335 2.66666 8.13183 2.66666 8.50002C2.66666 8.86821 2.96514 9.16669 3.33333 9.16669H7.33333V13.1667C7.33333 13.5349 7.63181 13.8334 8 13.8334C8.36819 13.8334 8.66666 13.5349 8.66666 13.1667V9.16669H12.6667C13.0349 9.16669 13.3333 8.86821 13.3333 8.50002C13.3333 8.13183 13.0349 7.83335 12.6667 7.83335H8.66666V3.83335C8.66666 3.46516 8.36819 3.16669 8 3.16669Z" fill="#1942DF"/>
</svg>
